<svg xmlns="http://www.w3.org/2000/svg" xmlns:xlink="http://www.w3.org/1999/xlink" width="2000" zoomAndPan="magnify" viewBox="0 0 1500 599.999999" height="800" preserveAspectRatio="xMidYMid meet" version="1.0"><defs><filter x="0%" y="0%" width="100%" height="100%" id="b3fb2ac11f"><feColorMatrix values="0 0 0 0 1 0 0 0 0 1 0 0 0 0 1 0 0 0 1 0" color-interpolation-filters="sRGB"/></filter><g/><mask id="8a68e03f31"><g filter="url(#b3fb2ac11f)"><rect x="-150" width="1800" fill="#000000" y="-60" height="719.999999" fill-opacity="0.8"/></g></mask><clipPath id="a54a764931"><path d="M 0.761719 0.558594 L 1315.960938 0.558594 L 1315.960938 257.601562 L 0.761719 257.601562 Z M 0.761719 0.558594 " clip-rule="nonzero"/></clipPath><clipPath id="9ce0d01396"><rect x="0" width="1316" y="0" height="258"/></clipPath><clipPath id="117b86608e"><rect x="0" width="1316" y="0" height="258"/></clipPath><mask id="3e489c0c12"><g filter="url(#b3fb2ac11f)"><rect x="-150" width="1800" fill="#000000" y="-60" height="719.999999" fill-opacity="0.8"/></g></mask><clipPath id="83dfa01425"><path d="M 0.0390625 0.238281 L 682.601562 0.238281 L 682.601562 77.28125 L 0.0390625 77.28125 Z M 0.0390625 0.238281 " clip-rule="nonzero"/></clipPath><clipPath id="c75d31ff75"><rect x="0" width="683" y="0" height="78"/></clipPath><clipPath id="3be2d401c8"><rect x="0" width="683" y="0" height="78"/></clipPath></defs><g mask="url(#8a68e03f31)"><g transform="matrix(1, 0, 0, 1, 95, 154)"><g clip-path="url(#117b86608e)"><g clip-path="url(#a54a764931)"><g transform="matrix(1, 0, 0, 1, 0.000000000000014211, -0.000000000000028422)"><g clip-path="url(#9ce0d01396)"><g fill="#e7d4b5" fill-opacity="1"><g transform="translate(0.875813, 203.79401)"><g><path d="M 27 -147.671875 L 34.171875 -147.671875 L 34.171875 -6.546875 L 120.671875 -6.546875 L 120.671875 0 L 27 0 Z M 27 -147.671875 "/></g></g></g><g fill="#e7d4b5" fill-opacity="1"><g transform="translate(129.969561, 203.79401)"><g><path d="M 117.5 -43.25 L 29.109375 -43.25 L 9.28125 0 L 1.484375 0 L 69.828125 -147.671875 L 76.78125 -147.671875 L 145.140625 0 L 137.328125 0 Z M 114.765625 -49.359375 L 73.40625 -139.4375 L 31.859375 -49.359375 Z M 114.765625 -49.359375 "/></g></g></g><g fill="#e7d4b5" fill-opacity="1"><g transform="translate(283.110089, 203.79401)"><g/></g></g><g fill="#e7d4b5" fill-opacity="1"><g transform="translate(342.805611, 203.79401)"><g><path d="M 141.125 -147.671875 L 74.890625 0 L 67.921875 0 L 1.6875 -147.671875 L 9.703125 -147.671875 L 71.71875 -9.28125 L 133.53125 -147.671875 Z M 141.125 -147.671875 "/></g></g></g><g fill="#e7d4b5" fill-opacity="1"><g transform="translate(491.938343, 203.79401)"><g><path d="M 117.5 -43.25 L 29.109375 -43.25 L 9.28125 0 L 1.484375 0 L 69.828125 -147.671875 L 76.78125 -147.671875 L 145.140625 0 L 137.328125 0 Z M 114.765625 -49.359375 L 73.40625 -139.4375 L 31.859375 -49.359375 Z M 114.765625 -49.359375 "/></g></g></g><g fill="#e7d4b5" fill-opacity="1"><g transform="translate(645.078904, 203.79401)"><g><path d="M 27 -147.671875 L 34.171875 -147.671875 L 34.171875 -6.546875 L 120.671875 -6.546875 L 120.671875 0 L 27 0 Z M 27 -147.671875 "/></g></g></g><g fill="#e7d4b5" fill-opacity="1"><g transform="translate(774.172619, 203.79401)"><g><path d="M 126.78125 -6.546875 L 126.78125 0 L 27 0 L 27 -147.671875 L 123.828125 -147.671875 L 123.828125 -141.125 L 34.171875 -141.125 L 34.171875 -78.265625 L 114.34375 -78.265625 L 114.34375 -71.71875 L 34.171875 -71.71875 L 34.171875 -6.546875 Z M 126.78125 -6.546875 "/></g></g></g><g fill="#e7d4b5" fill-opacity="1"><g transform="translate(921.406963, 203.79401)"><g><path d="M 55.0625 -141.125 L 0.84375 -141.125 L 0.84375 -147.671875 L 116.234375 -147.671875 L 116.234375 -141.125 L 62.015625 -141.125 L 62.015625 0 L 55.0625 0 Z M 55.0625 -141.125 "/></g></g></g><g fill="#e7d4b5" fill-opacity="1"><g transform="translate(1044.805418, 203.79401)"><g><path d="M 55.0625 -141.125 L 0.84375 -141.125 L 0.84375 -147.671875 L 116.234375 -147.671875 L 116.234375 -141.125 L 62.015625 -141.125 L 62.015625 0 L 55.0625 0 Z M 55.0625 -141.125 "/></g></g></g><g fill="#e7d4b5" fill-opacity="1"><g transform="translate(1168.203873, 203.79401)"><g><path d="M 126.78125 -6.546875 L 126.78125 0 L 27 0 L 27 -147.671875 L 123.828125 -147.671875 L 123.828125 -141.125 L 34.171875 -141.125 L 34.171875 -78.265625 L 114.34375 -78.265625 L 114.34375 -71.71875 L 34.171875 -71.71875 L 34.171875 -6.546875 Z M 126.78125 -6.546875 "/></g></g></g></g></g></g></g></g></g><g mask="url(#3e489c0c12)"><g transform="matrix(1, 0, 0, 1, 395, 366)"><g clip-path="url(#3be2d401c8)"><g clip-path="url(#83dfa01425)"><g><g clip-path="url(#c75d31ff75)"><g fill="#e7d4b5" fill-opacity="1"><g transform="translate(1.047685, 60.405693)"><g><path d="M 32.90625 -22.734375 C 36.363281 -22.191406 38.976562 -20.984375 40.75 -19.109375 C 42.519531 -17.234375 43.40625 -14.738281 43.40625 -11.625 C 43.40625 -7.832031 42.054688 -4.945312 39.359375 -2.96875 C 36.660156 -0.988281 32.640625 0 27.296875 0 L 8.09375 0 L 8.09375 -44.21875 L 26.03125 -44.21875 C 30.695312 -44.21875 34.359375 -43.25 37.015625 -41.3125 C 39.671875 -39.375 41 -36.59375 41 -32.96875 C 41 -30.320312 40.28125 -28.132812 38.84375 -26.40625 C 37.414062 -24.675781 35.4375 -23.453125 32.90625 -22.734375 Z M 10.234375 -42.328125 L 10.234375 -23.375 L 26.09375 -23.375 C 30.175781 -23.375 33.332031 -24.179688 35.5625 -25.796875 C 37.789062 -27.421875 38.90625 -29.769531 38.90625 -32.84375 C 38.90625 -35.914062 37.789062 -38.265625 35.5625 -39.890625 C 33.332031 -41.515625 30.175781 -42.328125 26.09375 -42.328125 Z M 27.421875 -1.890625 C 32.003906 -1.890625 35.453125 -2.691406 37.765625 -4.296875 C 40.085938 -5.898438 41.25 -8.363281 41.25 -11.6875 C 41.25 -15.050781 40.085938 -17.535156 37.765625 -19.140625 C 35.453125 -20.742188 32.003906 -21.546875 27.421875 -21.546875 L 10.234375 -21.546875 L 10.234375 -1.890625 Z M 27.421875 -1.890625 "/></g></g></g><g fill="#e7d4b5" fill-opacity="1"><g transform="translate(54.740074, 60.405693)"><g><path d="M 26.40625 0.25 C 22.113281 0.25 18.226562 -0.71875 14.75 -2.65625 C 11.269531 -4.59375 8.539062 -7.265625 6.5625 -10.671875 C 4.582031 -14.085938 3.59375 -17.898438 3.59375 -22.109375 C 3.59375 -26.316406 4.582031 -30.125 6.5625 -33.53125 C 8.539062 -36.945312 11.269531 -39.625 14.75 -41.5625 C 18.226562 -43.5 22.113281 -44.46875 26.40625 -44.46875 C 30.695312 -44.46875 34.585938 -43.5 38.078125 -41.5625 C 41.578125 -39.625 44.316406 -36.945312 46.296875 -33.53125 C 48.285156 -30.125 49.28125 -26.316406 49.28125 -22.109375 C 49.28125 -17.898438 48.285156 -14.085938 46.296875 -10.671875 C 44.316406 -7.265625 41.578125 -4.59375 38.078125 -2.65625 C 34.585938 -0.71875 30.695312 0.25 26.40625 0.25 Z M 26.40625 -1.703125 C 30.28125 -1.703125 33.796875 -2.585938 36.953125 -4.359375 C 40.109375 -6.128906 42.59375 -8.570312 44.40625 -11.6875 C 46.21875 -14.800781 47.125 -18.273438 47.125 -22.109375 C 47.125 -25.941406 46.21875 -29.414062 44.40625 -32.53125 C 42.59375 -35.644531 40.109375 -38.085938 36.953125 -39.859375 C 33.796875 -41.628906 30.28125 -42.515625 26.40625 -42.515625 C 22.53125 -42.515625 19.023438 -41.628906 15.890625 -39.859375 C 12.753906 -38.085938 10.28125 -35.644531 8.46875 -32.53125 C 6.65625 -29.414062 5.75 -25.941406 5.75 -22.109375 C 5.75 -18.273438 6.65625 -14.800781 8.46875 -11.6875 C 10.28125 -8.570312 12.753906 -6.128906 15.890625 -4.359375 C 19.023438 -2.585938 22.53125 -1.703125 26.40625 -1.703125 Z M 26.40625 -1.703125 "/></g></g></g><g fill="#e7d4b5" fill-opacity="1"><g transform="translate(113.928042, 60.405693)"><g><path d="M 25.078125 0.25 C 19.597656 0.25 15.332031 -1.347656 12.28125 -4.546875 C 9.226562 -7.742188 7.703125 -12.441406 7.703125 -18.640625 L 7.703125 -44.21875 L 9.859375 -44.21875 L 9.859375 -18.703125 C 9.859375 -13.054688 11.160156 -8.8125 13.765625 -5.96875 C 16.378906 -3.125 20.148438 -1.703125 25.078125 -1.703125 C 29.960938 -1.703125 33.71875 -3.125 36.34375 -5.96875 C 38.976562 -8.8125 40.296875 -13.054688 40.296875 -18.703125 L 40.296875 -44.21875 L 42.390625 -44.21875 L 42.390625 -18.640625 C 42.390625 -12.441406 40.875 -7.742188 37.84375 -4.546875 C 34.8125 -1.347656 30.554688 0.25 25.078125 0.25 Z M 25.078125 0.25 "/></g></g></g><g fill="#e7d4b5" fill-opacity="1"><g transform="translate(170.336639, 60.405693)"><g><path d="M 16.484375 -42.265625 L 0.25 -42.265625 L 0.25 -44.21875 L 34.8125 -44.21875 L 34.8125 -42.265625 L 18.578125 -42.265625 L 18.578125 0 L 16.484375 0 Z M 16.484375 -42.265625 "/></g></g></g><g fill="#e7d4b5" fill-opacity="1"><g transform="translate(211.711371, 60.405693)"><g><path d="M 8.09375 -44.21875 L 10.234375 -44.21875 L 10.234375 0 L 8.09375 0 Z M 8.09375 -44.21875 "/></g></g></g><g fill="#e7d4b5" fill-opacity="1"><g transform="translate(236.346702, 60.405693)"><g><path d="M 51.171875 3.21875 C 49.859375 4.820312 48.335938 6.035156 46.609375 6.859375 C 44.890625 7.679688 43 8.09375 40.9375 8.09375 C 38.664062 8.09375 36.410156 7.46875 34.171875 6.21875 C 31.941406 4.976562 29.5 2.988281 26.84375 0.25 L 26.40625 0.25 C 22.113281 0.25 18.226562 -0.71875 14.75 -2.65625 C 11.269531 -4.59375 8.539062 -7.265625 6.5625 -10.671875 C 4.582031 -14.085938 3.59375 -17.898438 3.59375 -22.109375 C 3.59375 -26.316406 4.582031 -30.125 6.5625 -33.53125 C 8.539062 -36.945312 11.269531 -39.625 14.75 -41.5625 C 18.226562 -43.5 22.113281 -44.46875 26.40625 -44.46875 C 30.695312 -44.46875 34.585938 -43.5 38.078125 -41.5625 C 41.578125 -39.625 44.316406 -36.945312 46.296875 -33.53125 C 48.285156 -30.125 49.28125 -26.316406 49.28125 -22.109375 C 49.28125 -18.234375 48.4375 -14.707031 46.75 -11.53125 C 45.0625 -8.351562 42.734375 -5.738281 39.765625 -3.6875 C 36.796875 -1.644531 33.4375 -0.394531 29.6875 0.0625 C 33.5625 4.1875 37.332031 6.25 41 6.25 C 44.445312 6.25 47.4375 4.773438 49.96875 1.828125 Z M 5.75 -22.109375 C 5.75 -18.316406 6.65625 -14.863281 8.46875 -11.75 C 10.28125 -8.632812 12.753906 -6.179688 15.890625 -4.390625 C 19.023438 -2.597656 22.53125 -1.703125 26.40625 -1.703125 C 30.28125 -1.703125 33.796875 -2.597656 36.953125 -4.390625 C 40.109375 -6.179688 42.59375 -8.632812 44.40625 -11.75 C 46.21875 -14.863281 47.125 -18.316406 47.125 -22.109375 C 47.125 -25.898438 46.21875 -29.351562 44.40625 -32.46875 C 42.59375 -35.582031 40.109375 -38.035156 36.953125 -39.828125 C 33.796875 -41.617188 30.28125 -42.515625 26.40625 -42.515625 C 22.53125 -42.515625 19.023438 -41.617188 15.890625 -39.828125 C 12.753906 -38.035156 10.28125 -35.582031 8.46875 -32.46875 C 6.65625 -29.351562 5.75 -25.898438 5.75 -22.109375 Z M 5.75 -22.109375 "/></g></g></g><g fill="#e7d4b5" fill-opacity="1"><g transform="translate(295.534687, 60.405693)"><g><path d="M 25.078125 0.25 C 19.597656 0.25 15.332031 -1.347656 12.28125 -4.546875 C 9.226562 -7.742188 7.703125 -12.441406 7.703125 -18.640625 L 7.703125 -44.21875 L 9.859375 -44.21875 L 9.859375 -18.703125 C 9.859375 -13.054688 11.160156 -8.8125 13.765625 -5.96875 C 16.378906 -3.125 20.148438 -1.703125 25.078125 -1.703125 C 29.960938 -1.703125 33.71875 -3.125 36.34375 -5.96875 C 38.976562 -8.8125 40.296875 -13.054688 40.296875 -18.703125 L 40.296875 -44.21875 L 42.390625 -44.21875 L 42.390625 -18.640625 C 42.390625 -12.441406 40.875 -7.742188 37.84375 -4.546875 C 34.8125 -1.347656 30.554688 0.25 25.078125 0.25 Z M 25.078125 0.25 "/></g></g></g><g fill="#e7d4b5" fill-opacity="1"><g transform="translate(351.943284, 60.405693)"><g><path d="M 37.96875 -1.953125 L 37.96875 0 L 8.09375 0 L 8.09375 -44.21875 L 37.078125 -44.21875 L 37.078125 -42.265625 L 10.234375 -42.265625 L 10.234375 -23.4375 L 34.234375 -23.4375 L 34.234375 -21.484375 L 10.234375 -21.484375 L 10.234375 -1.953125 Z M 37.96875 -1.953125 "/></g></g></g><g fill="#e7d4b5" fill-opacity="1"><g transform="translate(400.455933, 60.405693)"><g/></g></g><g fill="#e7d4b5" fill-opacity="1"><g transform="translate(422.754079, 60.405693)"><g><path d="M 7.265625 -14.71875 C 6.671875 -14.71875 6.175781 -14.914062 5.78125 -15.3125 C 5.382812 -15.71875 5.1875 -16.210938 5.1875 -16.796875 C 5.1875 -17.390625 5.394531 -17.882812 5.8125 -18.28125 C 6.226562 -18.6875 6.710938 -18.890625 7.265625 -18.890625 C 7.859375 -18.890625 8.351562 -18.6875 8.75 -18.28125 C 9.144531 -17.882812 9.34375 -17.390625 9.34375 -16.796875 C 9.34375 -16.210938 9.144531 -15.71875 8.75 -15.3125 C 8.351562 -14.914062 7.859375 -14.71875 7.265625 -14.71875 Z M 7.265625 -14.71875 "/></g></g></g><g fill="#e7d4b5" fill-opacity="1"><g transform="translate(443.599366, 60.405693)"><g/></g></g><g fill="#e7d4b5" fill-opacity="1"><g transform="translate(465.897512, 60.405693)"><g><path d="M 40.046875 -21.796875 L 42.078125 -21.796875 L 42.078125 -5.4375 C 40.140625 -3.582031 37.832031 -2.171875 35.15625 -1.203125 C 32.476562 -0.234375 29.625 0.25 26.59375 0.25 C 22.257812 0.25 18.34375 -0.71875 14.84375 -2.65625 C 11.351562 -4.59375 8.601562 -7.265625 6.59375 -10.671875 C 4.59375 -14.085938 3.59375 -17.898438 3.59375 -22.109375 C 3.59375 -26.316406 4.59375 -30.125 6.59375 -33.53125 C 8.601562 -36.945312 11.351562 -39.625 14.84375 -41.5625 C 18.34375 -43.5 22.257812 -44.46875 26.59375 -44.46875 C 29.75 -44.46875 32.65625 -43.984375 35.3125 -43.015625 C 37.96875 -42.046875 40.242188 -40.59375 42.140625 -38.65625 L 40.875 -37.203125 C 37.207031 -40.742188 32.46875 -42.515625 26.65625 -42.515625 C 22.695312 -42.515625 19.128906 -41.617188 15.953125 -39.828125 C 12.773438 -38.035156 10.28125 -35.582031 8.46875 -32.46875 C 6.65625 -29.351562 5.75 -25.898438 5.75 -22.109375 C 5.75 -18.316406 6.65625 -14.863281 8.46875 -11.75 C 10.28125 -8.632812 12.773438 -6.179688 15.953125 -4.390625 C 19.128906 -2.597656 22.695312 -1.703125 26.65625 -1.703125 C 32.175781 -1.703125 36.640625 -3.238281 40.046875 -6.3125 Z M 40.046875 -21.796875 "/></g></g></g><g fill="#e7d4b5" fill-opacity="1"><g transform="translate(521.105908, 60.405693)"><g><path d="M 35.1875 -12.953125 L 8.71875 -12.953125 L 2.78125 0 L 0.4375 0 L 20.90625 -44.21875 L 23 -44.21875 L 43.46875 0 L 41.125 0 Z M 34.359375 -14.78125 L 21.984375 -41.75 L 9.53125 -14.78125 Z M 34.359375 -14.78125 "/></g></g></g><g fill="#e7d4b5" fill-opacity="1"><g transform="translate(571.387243, 60.405693)"><g><path d="M 39.171875 0 L 28.234375 -15.21875 C 26.804688 -14.96875 25.207031 -14.84375 23.4375 -14.84375 L 10.234375 -14.84375 L 10.234375 0 L 8.09375 0 L 8.09375 -44.21875 L 23.4375 -44.21875 C 28.957031 -44.21875 33.265625 -42.921875 36.359375 -40.328125 C 39.453125 -37.742188 41 -34.15625 41 -29.5625 C 41 -26.03125 40.082031 -23.070312 38.25 -20.6875 C 36.414062 -18.3125 33.796875 -16.660156 30.390625 -15.734375 L 41.6875 0 Z M 23.5625 -16.796875 C 28.488281 -16.796875 32.273438 -17.898438 34.921875 -20.109375 C 37.578125 -22.328125 38.90625 -25.476562 38.90625 -29.5625 C 38.90625 -33.601562 37.578125 -36.726562 34.921875 -38.9375 C 32.273438 -41.15625 28.488281 -42.265625 23.5625 -42.265625 L 10.234375 -42.265625 L 10.234375 -16.796875 Z M 23.5625 -16.796875 "/></g></g></g><g fill="#e7d4b5" fill-opacity="1"><g transform="translate(623.058271, 60.405693)"><g><path d="M 8.09375 -44.21875 L 25.140625 -44.21875 C 29.734375 -44.21875 33.804688 -43.269531 37.359375 -41.375 C 40.921875 -39.476562 43.679688 -36.851562 45.640625 -33.5 C 47.597656 -30.15625 48.578125 -26.359375 48.578125 -22.109375 C 48.578125 -17.859375 47.597656 -14.054688 45.640625 -10.703125 C 43.679688 -7.359375 40.921875 -4.738281 37.359375 -2.84375 C 33.804688 -0.945312 29.734375 0 25.140625 0 L 8.09375 0 Z M 25.015625 -1.953125 C 29.304688 -1.953125 33.0625 -2.816406 36.28125 -4.546875 C 39.507812 -6.273438 42.007812 -8.664062 43.78125 -11.71875 C 45.550781 -14.769531 46.4375 -18.234375 46.4375 -22.109375 C 46.4375 -25.984375 45.550781 -29.445312 43.78125 -32.5 C 42.007812 -35.550781 39.507812 -37.941406 36.28125 -39.671875 C 33.0625 -41.398438 29.304688 -42.265625 25.015625 -42.265625 L 10.234375 -42.265625 L 10.234375 -1.953125 Z M 25.015625 -1.953125 "/></g></g></g></g></g></g></g></g></g></svg>