<svg xmlns="http://www.w3.org/2000/svg" xmlns:xlink="http://www.w3.org/1999/xlink" width="80" zoomAndPan="magnify" viewBox="0 0 60 44.999999" height="60" preserveAspectRatio="xMidYMid meet" version="1.0"><defs><filter x="0%" y="0%" width="100%" height="100%" id="09ba340d43"><feColorMatrix values="0 0 0 0 1 0 0 0 0 1 0 0 0 0 1 0 0 0 1 0" color-interpolation-filters="sRGB"/></filter><g/><mask id="b63bfc21fb"><g filter="url(#09ba340d43)"><rect x="-6" width="72" fill="#000000" y="-4.5" height="53.999999" fill-opacity="0.8"/></g></mask><clipPath id="af14ae9788"><path d="M 0.199219 0.398438 L 58.28125 0.398438 L 58.28125 10.960938 L 0.199219 10.960938 Z M 0.199219 0.398438 " clip-rule="nonzero"/></clipPath><clipPath id="1825c18e0f"><rect x="0" width="59" y="0" height="11"/></clipPath><clipPath id="acb89cdb39"><rect x="0" width="59" y="0" height="11"/></clipPath><mask id="43884b8edb"><g filter="url(#09ba340d43)"><rect x="-6" width="72" fill="#000000" y="-4.5" height="53.999999" fill-opacity="0.8"/></g></mask><clipPath id="0d04b7173e"><path d="M 0.320312 0.480469 L 27.921875 0.480469 L 27.921875 3.839844 L 0.320312 3.839844 Z M 0.320312 0.480469 " clip-rule="nonzero"/></clipPath><clipPath id="b7b3c801d9"><path d="M 0.320312 1 L 3 1 L 3 3 L 0.320312 3 Z M 0.320312 1 " clip-rule="nonzero"/></clipPath><clipPath id="1e2371097b"><path d="M 10 1 L 12 1 L 12 3.839844 L 10 3.839844 Z M 10 1 " clip-rule="nonzero"/></clipPath><clipPath id="503ae7e12e"><path d="M 25 1 L 27.921875 1 L 27.921875 3 L 25 3 Z M 25 1 " clip-rule="nonzero"/></clipPath><clipPath id="d00ca6e375"><rect x="0" width="28" y="0" height="4"/></clipPath><clipPath id="2f581211dd"><rect x="0" width="28" y="0" height="4"/></clipPath></defs><g mask="url(#b63bfc21fb)"><g transform="matrix(1, 0, 0, 1, 1, 14)"><g clip-path="url(#acb89cdb39)"><g clip-path="url(#af14ae9788)"><g><g clip-path="url(#1825c18e0f)"><g fill="#e7d4b5" fill-opacity="1"><g transform="translate(0.253059, 8.705132)"><g><path d="M 1.078125 -5.90625 L 1.359375 -5.90625 L 1.359375 -0.265625 L 4.828125 -0.265625 L 4.828125 0 L 1.078125 0 Z M 1.078125 -5.90625 "/></g></g></g><g fill="#e7d4b5" fill-opacity="1"><g transform="translate(5.416808, 8.705132)"><g><path d="M 4.703125 -1.734375 L 1.171875 -1.734375 L 0.375 0 L 0.0625 0 L 2.796875 -5.90625 L 3.078125 -5.90625 L 5.8125 0 L 5.5 0 Z M 4.59375 -1.96875 L 2.9375 -5.578125 L 1.28125 -1.96875 Z M 4.59375 -1.96875 "/></g></g></g><g fill="#e7d4b5" fill-opacity="1"><g transform="translate(11.542429, 8.705132)"><g/></g></g><g fill="#e7d4b5" fill-opacity="1"><g transform="translate(13.93025, 8.705132)"><g><path d="M 5.640625 -5.90625 L 3 0 L 2.71875 0 L 0.0625 -5.90625 L 0.390625 -5.90625 L 2.875 -0.375 L 5.34375 -5.90625 Z M 5.640625 -5.90625 "/></g></g></g><g fill="#e7d4b5" fill-opacity="1"><g transform="translate(19.89556, 8.705132)"><g><path d="M 4.703125 -1.734375 L 1.171875 -1.734375 L 0.375 0 L 0.0625 0 L 2.796875 -5.90625 L 3.078125 -5.90625 L 5.8125 0 L 5.5 0 Z M 4.59375 -1.96875 L 2.9375 -5.578125 L 1.28125 -1.96875 Z M 4.59375 -1.96875 "/></g></g></g><g fill="#e7d4b5" fill-opacity="1"><g transform="translate(26.021182, 8.705132)"><g><path d="M 1.078125 -5.90625 L 1.359375 -5.90625 L 1.359375 -0.265625 L 4.828125 -0.265625 L 4.828125 0 L 1.078125 0 Z M 1.078125 -5.90625 "/></g></g></g><g fill="#e7d4b5" fill-opacity="1"><g transform="translate(31.18493, 8.705132)"><g><path d="M 1.078125 -5.90625 L 1.359375 -5.90625 L 1.359375 -0.265625 L 4.828125 -0.265625 L 4.828125 0 L 1.078125 0 Z M 1.078125 -5.90625 "/></g></g></g><g fill="#e7d4b5" fill-opacity="1"><g transform="translate(36.348682, 8.705132)"><g><path d="M 5.078125 -0.265625 L 5.078125 0 L 1.078125 0 L 1.078125 -5.90625 L 4.953125 -5.90625 L 4.953125 -5.640625 L 1.359375 -5.640625 L 1.359375 -3.125 L 4.578125 -3.125 L 4.578125 -2.875 L 1.359375 -2.875 L 1.359375 -0.265625 Z M 5.078125 -0.265625 "/></g></g></g><g fill="#e7d4b5" fill-opacity="1"><g transform="translate(42.238053, 8.705132)"><g><path d="M 2.203125 -5.640625 L 0.03125 -5.640625 L 0.03125 -5.90625 L 4.65625 -5.90625 L 4.65625 -5.640625 L 2.484375 -5.640625 L 2.484375 0 L 2.203125 0 Z M 2.203125 -5.640625 "/></g></g></g><g fill="#e7d4b5" fill-opacity="1"><g transform="translate(47.173991, 8.705132)"><g><path d="M 2.203125 -5.640625 L 0.03125 -5.640625 L 0.03125 -5.90625 L 4.65625 -5.90625 L 4.65625 -5.640625 L 2.484375 -5.640625 L 2.484375 0 L 2.203125 0 Z M 2.203125 -5.640625 "/></g></g></g><g fill="#e7d4b5" fill-opacity="1"><g transform="translate(52.109929, 8.705132)"><g><path d="M 5.078125 -0.265625 L 5.078125 0 L 1.078125 0 L 1.078125 -5.90625 L 4.953125 -5.90625 L 4.953125 -5.640625 L 1.359375 -5.640625 L 1.359375 -3.125 L 4.578125 -3.125 L 4.578125 -2.875 L 1.359375 -2.875 L 1.359375 -0.265625 Z M 5.078125 -0.265625 "/></g></g></g></g></g></g></g></g></g><g mask="url(#43884b8edb)"><g transform="matrix(1, 0, 0, 1, 16, 24)"><g clip-path="url(#2f581211dd)"><g clip-path="url(#0d04b7173e)"><g><g clip-path="url(#d00ca6e375)"><g clip-path="url(#b7b3c801d9)"><g fill="#e7d4b5" fill-opacity="1"><g transform="translate(0.515652, 2.830519)"><g><path d="M 1.3125 -0.90625 C 1.457031 -0.882812 1.5625 -0.835938 1.625 -0.765625 C 1.695312 -0.691406 1.734375 -0.59375 1.734375 -0.46875 C 1.734375 -0.3125 1.679688 -0.191406 1.578125 -0.109375 C 1.472656 -0.0351562 1.3125 0 1.09375 0 L 0.328125 0 L 0.328125 -1.765625 L 1.046875 -1.765625 C 1.234375 -1.765625 1.378906 -1.722656 1.484375 -1.640625 C 1.585938 -1.566406 1.640625 -1.460938 1.640625 -1.328125 C 1.640625 -1.210938 1.609375 -1.117188 1.546875 -1.046875 C 1.492188 -0.984375 1.414062 -0.9375 1.3125 -0.90625 Z M 0.40625 -1.703125 L 0.40625 -0.9375 L 1.046875 -0.9375 C 1.210938 -0.9375 1.335938 -0.96875 1.421875 -1.03125 C 1.515625 -1.09375 1.5625 -1.1875 1.5625 -1.3125 C 1.5625 -1.4375 1.515625 -1.53125 1.421875 -1.59375 C 1.335938 -1.664062 1.210938 -1.703125 1.046875 -1.703125 Z M 1.09375 -0.078125 C 1.28125 -0.078125 1.421875 -0.109375 1.515625 -0.171875 C 1.609375 -0.234375 1.65625 -0.332031 1.65625 -0.46875 C 1.65625 -0.601562 1.609375 -0.703125 1.515625 -0.765625 C 1.421875 -0.828125 1.28125 -0.859375 1.09375 -0.859375 L 0.40625 -0.859375 L 0.40625 -0.078125 Z M 1.09375 -0.078125 "/></g></g></g></g><g fill="#e7d4b5" fill-opacity="1"><g transform="translate(2.663363, 2.830519)"><g><path d="M 1.0625 0.015625 C 0.882812 0.015625 0.722656 -0.0195312 0.578125 -0.09375 C 0.441406 -0.175781 0.332031 -0.285156 0.25 -0.421875 C 0.175781 -0.566406 0.140625 -0.722656 0.140625 -0.890625 C 0.140625 -1.054688 0.175781 -1.207031 0.25 -1.34375 C 0.332031 -1.476562 0.441406 -1.582031 0.578125 -1.65625 C 0.722656 -1.738281 0.882812 -1.78125 1.0625 -1.78125 C 1.226562 -1.78125 1.378906 -1.738281 1.515625 -1.65625 C 1.660156 -1.582031 1.769531 -1.476562 1.84375 -1.34375 C 1.925781 -1.207031 1.96875 -1.054688 1.96875 -0.890625 C 1.96875 -0.722656 1.925781 -0.566406 1.84375 -0.421875 C 1.769531 -0.285156 1.660156 -0.175781 1.515625 -0.09375 C 1.378906 -0.0195312 1.226562 0.015625 1.0625 0.015625 Z M 1.0625 -0.0625 C 1.21875 -0.0625 1.359375 -0.0976562 1.484375 -0.171875 C 1.609375 -0.242188 1.707031 -0.34375 1.78125 -0.46875 C 1.851562 -0.59375 1.890625 -0.734375 1.890625 -0.890625 C 1.890625 -1.035156 1.851562 -1.171875 1.78125 -1.296875 C 1.707031 -1.421875 1.609375 -1.519531 1.484375 -1.59375 C 1.359375 -1.664062 1.21875 -1.703125 1.0625 -1.703125 C 0.90625 -1.703125 0.765625 -1.664062 0.640625 -1.59375 C 0.515625 -1.519531 0.414062 -1.421875 0.34375 -1.296875 C 0.269531 -1.171875 0.234375 -1.035156 0.234375 -0.890625 C 0.234375 -0.734375 0.269531 -0.59375 0.34375 -0.46875 C 0.414062 -0.34375 0.515625 -0.242188 0.640625 -0.171875 C 0.765625 -0.0976562 0.90625 -0.0625 1.0625 -0.0625 Z M 1.0625 -0.0625 "/></g></g></g><g fill="#e7d4b5" fill-opacity="1"><g transform="translate(5.030899, 2.830519)"><g><path d="M 1 0.015625 C 0.78125 0.015625 0.609375 -0.046875 0.484375 -0.171875 C 0.367188 -0.304688 0.3125 -0.5 0.3125 -0.75 L 0.3125 -1.765625 L 0.390625 -1.765625 L 0.390625 -0.75 C 0.390625 -0.519531 0.441406 -0.347656 0.546875 -0.234375 C 0.648438 -0.117188 0.800781 -0.0625 1 -0.0625 C 1.195312 -0.0625 1.347656 -0.117188 1.453125 -0.234375 C 1.554688 -0.347656 1.609375 -0.519531 1.609375 -0.75 L 1.609375 -1.765625 L 1.703125 -1.765625 L 1.703125 -0.75 C 1.703125 -0.5 1.640625 -0.304688 1.515625 -0.171875 C 1.390625 -0.046875 1.21875 0.015625 1 0.015625 Z M 1 0.015625 "/></g></g></g><g fill="#e7d4b5" fill-opacity="1"><g transform="translate(7.287259, 2.830519)"><g><path d="M 0.65625 -1.6875 L 0.015625 -1.6875 L 0.015625 -1.765625 L 1.390625 -1.765625 L 1.390625 -1.6875 L 0.75 -1.6875 L 0.75 0 L 0.65625 0 Z M 0.65625 -1.6875 "/></g></g></g><g fill="#e7d4b5" fill-opacity="1"><g transform="translate(8.942261, 2.830519)"><g><path d="M 0.328125 -1.765625 L 0.40625 -1.765625 L 0.40625 0 L 0.328125 0 Z M 0.328125 -1.765625 "/></g></g></g><g clip-path="url(#1e2371097b)"><g fill="#e7d4b5" fill-opacity="1"><g transform="translate(9.92768, 2.830519)"><g><path d="M 2.046875 0.125 C 1.992188 0.1875 1.929688 0.234375 1.859375 0.265625 C 1.796875 0.304688 1.722656 0.328125 1.640625 0.328125 C 1.546875 0.328125 1.453125 0.300781 1.359375 0.25 C 1.273438 0.195312 1.179688 0.117188 1.078125 0.015625 L 1.0625 0.015625 C 0.882812 0.015625 0.722656 -0.0195312 0.578125 -0.09375 C 0.441406 -0.175781 0.332031 -0.285156 0.25 -0.421875 C 0.175781 -0.566406 0.140625 -0.722656 0.140625 -0.890625 C 0.140625 -1.054688 0.175781 -1.207031 0.25 -1.34375 C 0.332031 -1.476562 0.441406 -1.582031 0.578125 -1.65625 C 0.722656 -1.738281 0.882812 -1.78125 1.0625 -1.78125 C 1.226562 -1.78125 1.378906 -1.738281 1.515625 -1.65625 C 1.660156 -1.582031 1.769531 -1.476562 1.84375 -1.34375 C 1.925781 -1.207031 1.96875 -1.054688 1.96875 -0.890625 C 1.96875 -0.734375 1.929688 -0.585938 1.859375 -0.453125 C 1.796875 -0.328125 1.707031 -0.222656 1.59375 -0.140625 C 1.476562 -0.0664062 1.34375 -0.0195312 1.1875 0 C 1.34375 0.164062 1.492188 0.25 1.640625 0.25 C 1.773438 0.25 1.894531 0.191406 2 0.078125 Z M 0.234375 -0.890625 C 0.234375 -0.734375 0.269531 -0.59375 0.34375 -0.46875 C 0.414062 -0.34375 0.515625 -0.242188 0.640625 -0.171875 C 0.765625 -0.0976562 0.90625 -0.0625 1.0625 -0.0625 C 1.21875 -0.0625 1.359375 -0.0976562 1.484375 -0.171875 C 1.609375 -0.242188 1.707031 -0.34375 1.78125 -0.46875 C 1.851562 -0.59375 1.890625 -0.734375 1.890625 -0.890625 C 1.890625 -1.035156 1.851562 -1.171875 1.78125 -1.296875 C 1.707031 -1.421875 1.609375 -1.519531 1.484375 -1.59375 C 1.359375 -1.664062 1.21875 -1.703125 1.0625 -1.703125 C 0.90625 -1.703125 0.765625 -1.664062 0.640625 -1.59375 C 0.515625 -1.519531 0.414062 -1.421875 0.34375 -1.296875 C 0.269531 -1.171875 0.234375 -1.035156 0.234375 -0.890625 Z M 0.234375 -0.890625 "/></g></g></g></g><g fill="#e7d4b5" fill-opacity="1"><g transform="translate(12.295216, 2.830519)"><g><path d="M 1 0.015625 C 0.78125 0.015625 0.609375 -0.046875 0.484375 -0.171875 C 0.367188 -0.304688 0.3125 -0.5 0.3125 -0.75 L 0.3125 -1.765625 L 0.390625 -1.765625 L 0.390625 -0.75 C 0.390625 -0.519531 0.441406 -0.347656 0.546875 -0.234375 C 0.648438 -0.117188 0.800781 -0.0625 1 -0.0625 C 1.195312 -0.0625 1.347656 -0.117188 1.453125 -0.234375 C 1.554688 -0.347656 1.609375 -0.519531 1.609375 -0.75 L 1.609375 -1.765625 L 1.703125 -1.765625 L 1.703125 -0.75 C 1.703125 -0.5 1.640625 -0.304688 1.515625 -0.171875 C 1.390625 -0.046875 1.21875 0.015625 1 0.015625 Z M 1 0.015625 "/></g></g></g><g fill="#e7d4b5" fill-opacity="1"><g transform="translate(14.551577, 2.830519)"><g><path d="M 1.515625 -0.078125 L 1.515625 0 L 0.328125 0 L 0.328125 -1.765625 L 1.484375 -1.765625 L 1.484375 -1.6875 L 0.40625 -1.6875 L 0.40625 -0.9375 L 1.375 -0.9375 L 1.375 -0.859375 L 0.40625 -0.859375 L 0.40625 -0.078125 Z M 1.515625 -0.078125 "/></g></g></g><g fill="#e7d4b5" fill-opacity="1"><g transform="translate(16.492096, 2.830519)"><g/></g></g><g fill="#e7d4b5" fill-opacity="1"><g transform="translate(17.384028, 2.830519)"><g><path d="M 0.296875 -0.59375 C 0.265625 -0.59375 0.238281 -0.597656 0.21875 -0.609375 C 0.207031 -0.628906 0.203125 -0.648438 0.203125 -0.671875 C 0.203125 -0.691406 0.210938 -0.707031 0.234375 -0.71875 C 0.253906 -0.738281 0.273438 -0.75 0.296875 -0.75 C 0.316406 -0.75 0.332031 -0.738281 0.34375 -0.71875 C 0.363281 -0.707031 0.375 -0.691406 0.375 -0.671875 C 0.375 -0.648438 0.363281 -0.628906 0.34375 -0.609375 C 0.332031 -0.597656 0.316406 -0.59375 0.296875 -0.59375 Z M 0.296875 -0.59375 "/></g></g></g><g fill="#e7d4b5" fill-opacity="1"><g transform="translate(18.217845, 2.830519)"><g/></g></g><g fill="#e7d4b5" fill-opacity="1"><g transform="translate(19.109777, 2.830519)"><g><path d="M 1.609375 -0.875 L 1.6875 -0.875 L 1.6875 -0.21875 C 1.601562 -0.144531 1.507812 -0.0859375 1.40625 -0.046875 C 1.300781 -0.00390625 1.1875 0.015625 1.0625 0.015625 C 0.894531 0.015625 0.738281 -0.0195312 0.59375 -0.09375 C 0.457031 -0.175781 0.347656 -0.285156 0.265625 -0.421875 C 0.179688 -0.566406 0.140625 -0.722656 0.140625 -0.890625 C 0.140625 -1.054688 0.179688 -1.207031 0.265625 -1.34375 C 0.347656 -1.476562 0.457031 -1.582031 0.59375 -1.65625 C 0.738281 -1.738281 0.894531 -1.78125 1.0625 -1.78125 C 1.1875 -1.78125 1.300781 -1.757812 1.40625 -1.71875 C 1.519531 -1.6875 1.613281 -1.628906 1.6875 -1.546875 L 1.640625 -1.484375 C 1.492188 -1.628906 1.300781 -1.703125 1.0625 -1.703125 C 0.90625 -1.703125 0.765625 -1.664062 0.640625 -1.59375 C 0.515625 -1.519531 0.414062 -1.421875 0.34375 -1.296875 C 0.269531 -1.171875 0.234375 -1.035156 0.234375 -0.890625 C 0.234375 -0.734375 0.269531 -0.59375 0.34375 -0.46875 C 0.414062 -0.34375 0.515625 -0.242188 0.640625 -0.171875 C 0.765625 -0.0976562 0.90625 -0.0625 1.0625 -0.0625 C 1.289062 -0.0625 1.472656 -0.125 1.609375 -0.25 Z M 1.609375 -0.875 "/></g></g></g><g fill="#e7d4b5" fill-opacity="1"><g transform="translate(21.318131, 2.830519)"><g><path d="M 1.40625 -0.515625 L 0.34375 -0.515625 L 0.109375 0 L 0.015625 0 L 0.84375 -1.765625 L 0.921875 -1.765625 L 1.734375 0 L 1.640625 0 Z M 1.375 -0.59375 L 0.875 -1.671875 L 0.375 -0.59375 Z M 1.375 -0.59375 "/></g></g></g><g fill="#e7d4b5" fill-opacity="1"><g transform="translate(23.329401, 2.830519)"><g><path d="M 1.5625 0 L 1.125 -0.609375 C 1.070312 -0.597656 1.007812 -0.59375 0.9375 -0.59375 L 0.40625 -0.59375 L 0.40625 0 L 0.328125 0 L 0.328125 -1.765625 L 0.9375 -1.765625 C 1.15625 -1.765625 1.328125 -1.710938 1.453125 -1.609375 C 1.578125 -1.503906 1.640625 -1.363281 1.640625 -1.1875 C 1.640625 -1.039062 1.601562 -0.921875 1.53125 -0.828125 C 1.457031 -0.734375 1.351562 -0.664062 1.21875 -0.625 L 1.671875 0 Z M 0.9375 -0.671875 C 1.132812 -0.671875 1.285156 -0.710938 1.390625 -0.796875 C 1.503906 -0.890625 1.5625 -1.019531 1.5625 -1.1875 C 1.5625 -1.34375 1.503906 -1.460938 1.390625 -1.546875 C 1.285156 -1.640625 1.132812 -1.6875 0.9375 -1.6875 L 0.40625 -1.6875 L 0.40625 -0.671875 Z M 0.9375 -0.671875 "/></g></g></g><g clip-path="url(#503ae7e12e)"><g fill="#e7d4b5" fill-opacity="1"><g transform="translate(25.396257, 2.830519)"><g><path d="M 0.328125 -1.765625 L 1 -1.765625 C 1.1875 -1.765625 1.351562 -1.726562 1.5 -1.65625 C 1.644531 -1.582031 1.753906 -1.476562 1.828125 -1.34375 C 1.910156 -1.207031 1.953125 -1.054688 1.953125 -0.890625 C 1.953125 -0.710938 1.910156 -0.554688 1.828125 -0.421875 C 1.753906 -0.296875 1.644531 -0.191406 1.5 -0.109375 C 1.351562 -0.0351562 1.1875 0 1 0 L 0.328125 0 Z M 1 -0.078125 C 1.175781 -0.078125 1.328125 -0.109375 1.453125 -0.171875 C 1.578125 -0.242188 1.675781 -0.34375 1.75 -0.46875 C 1.820312 -0.59375 1.859375 -0.734375 1.859375 -0.890625 C 1.859375 -1.046875 1.820312 -1.179688 1.75 -1.296875 C 1.675781 -1.421875 1.578125 -1.515625 1.453125 -1.578125 C 1.328125 -1.648438 1.175781 -1.6875 1 -1.6875 L 0.40625 -1.6875 L 0.40625 -0.078125 Z M 1 -0.078125 "/></g></g></g></g></g></g></g></g></g></g></svg>